<svg width="900" height="620" viewBox="0 0 900 620" xmlns="http://www.w3.org/2000/svg" style="background:#0d0d0d;font-family:monospace;">

  <!-- Title -->
  <text x="450" y="38" text-anchor="middle" font-size="20" font-weight="bold" fill="#ff3333">HexStrike AI v6.0 — System Architecture</text>

  <!-- ═══ Layer 1: AI Clients ═══ -->
  <rect x="30" y="65" width="840" height="80" rx="8" fill="#1a0000" stroke="#ff3333" stroke-width="1.5"/>
  <text x="450" y="83" text-anchor="middle" font-size="11" fill="#ff6666">AI CLIENTS</text>

  <rect x="60"  y="92" width="120" height="38" rx="6" fill="#2a0000" stroke="#ff4444" stroke-width="1"/>
  <text x="120" y="116" text-anchor="middle" font-size="12" fill="#ff9999">Claude Desktop</text>

  <rect x="205" y="92" width="120" height="38" rx="6" fill="#2a0000" stroke="#ff4444" stroke-width="1"/>
  <text x="265" y="116" text-anchor="middle" font-size="12" fill="#ff9999">VS Code Copilot</text>

  <rect x="350" y="92" width="120" height="38" rx="6" fill="#2a0000" stroke="#ff4444" stroke-width="1"/>
  <text x="410" y="116" text-anchor="middle" font-size="12" fill="#ff9999">Cursor / Roo</text>

  <rect x="495" y="92" width="120" height="38" rx="6" fill="#2a0000" stroke="#ff4444" stroke-width="1"/>
  <text x="555" y="116" text-anchor="middle" font-size="12" fill="#ff9999">Any MCP Client</text>

  <rect x="640" y="92" width="200" height="38" rx="6" fill="#1a1a00" stroke="#ffaa00" stroke-width="1"/>
  <text x="740" y="111" text-anchor="middle" font-size="11" fill="#ffcc44">Claude Code CLI</text>
  <text x="740" y="124" text-anchor="middle" font-size="10" fill="#aa8800">(this session)</text>

  <!-- Arrow down: Clients → MCP -->
  <line x1="450" y1="145" x2="450" y2="175" stroke="#ff3333" stroke-width="2" stroke-dasharray="5,3"/>
  <text x="457" y="163" font-size="10" fill="#ff6666">MCP Protocol (stdio)</text>
  <polygon points="450,175 445,165 455,165" fill="#ff3333"/>

  <!-- ═══ Layer 2: MCP Client ═══ -->
  <rect x="200" y="175" width="500" height="75" rx="8" fill="#1a0010" stroke="#cc0066" stroke-width="2"/>
  <text x="450" y="195" text-anchor="middle" font-size="11" fill="#ff66aa">MCP CLIENT  —  hexstrike_mcp.py</text>
  <text x="450" y="212" text-anchor="middle" font-size="11" fill="#ff99cc">FastMCP  •  150+ tool definitions  •  stdio transport</text>
  <text x="450" y="228" text-anchor="middle" font-size="10" fill="#884466">Python venv: /home/aymane/hexstrike-mcp-env  (native Linux FS — fast)</text>

  <!-- Arrow down: MCP Client → Server -->
  <line x1="450" y1="250" x2="450" y2="285" stroke="#ff6600" stroke-width="2" stroke-dasharray="5,3"/>
  <text x="457" y="270" font-size="10" fill="#ff9944">HTTP REST  (localhost:8888)</text>
  <polygon points="450,285 445,275 455,275" fill="#ff6600"/>

  <!-- ═══ Layer 3: HexStrike Server ═══ -->
  <rect x="60" y="285" width="780" height="115" rx="8" fill="#001a00" stroke="#00cc44" stroke-width="2"/>
  <text x="450" y="305" text-anchor="middle" font-size="11" fill="#44ff88">HEXSTRIKE SERVER  —  hexstrike_server.py  •  Flask  •  :8888</text>

  <!-- Sub-boxes inside server -->
  <rect x="80"  y="315" width="155" height="70" rx="5" fill="#002200" stroke="#009933" stroke-width="1"/>
  <text x="158" y="333" text-anchor="middle" font-size="10" fill="#66ff99">Decision Engine</text>
  <text x="158" y="349" text-anchor="middle" font-size="9"  fill="#448844">Tool Selection AI</text>
  <text x="158" y="362" text-anchor="middle" font-size="9"  fill="#448844">Param Optimization</text>
  <text x="158" y="375" text-anchor="middle" font-size="9"  fill="#448844">Attack Chain Discovery</text>

  <rect x="255" y="315" width="155" height="70" rx="5" fill="#002200" stroke="#009933" stroke-width="1"/>
  <text x="333" y="333" text-anchor="middle" font-size="10" fill="#66ff99">AI Agents (12+)</text>
  <text x="333" y="349" text-anchor="middle" font-size="9"  fill="#448844">BugBounty • CTF Solver</text>
  <text x="333" y="362" text-anchor="middle" font-size="9"  fill="#448844">CVE Intelligence</text>
  <text x="333" y="375" text-anchor="middle" font-size="9"  fill="#448844">Exploit Generator</text>

  <rect x="430" y="315" width="155" height="70" rx="5" fill="#002200" stroke="#009933" stroke-width="1"/>
  <text x="508" y="333" text-anchor="middle" font-size="10" fill="#66ff99">Process Manager</text>
  <text x="508" y="349" text-anchor="middle" font-size="9"  fill="#448844">Smart Caching (LRU)</text>
  <text x="508" y="362" text-anchor="middle" font-size="9"  fill="#448844">Real-time Monitoring</text>
  <text x="508" y="375" text-anchor="middle" font-size="9"  fill="#448844">Error Recovery</text>

  <rect x="605" y="315" width="215" height="70" rx="5" fill="#002200" stroke="#009933" stroke-width="1"/>
  <text x="713" y="333" text-anchor="middle" font-size="10" fill="#66ff99">Visual Engine</text>
  <text x="713" y="349" text-anchor="middle" font-size="9"  fill="#448844">Real-time Dashboards</text>
  <text x="713" y="362" text-anchor="middle" font-size="9"  fill="#448844">Progress Visualization</text>
  <text x="713" y="375" text-anchor="middle" font-size="9"  fill="#448844">Vulnerability Cards</text>

  <!-- Arrow down: Server → Tools -->
  <line x1="450" y1="400" x2="450" y2="430" stroke="#0088ff" stroke-width="2" stroke-dasharray="5,3"/>
  <text x="457" y="418" font-size="10" fill="#44aaff">subprocess / shell exec</text>
  <polygon points="450,430 445,420 455,420" fill="#0088ff"/>

  <!-- ═══ Layer 4: Security Tools ═══ -->
  <rect x="30" y="430" width="840" height="165" rx="8" fill="#00001a" stroke="#0055ff" stroke-width="1.5"/>
  <text x="450" y="450" text-anchor="middle" font-size="11" fill="#4488ff">SECURITY TOOLS ARSENAL  —  150+ Tools</text>

  <!-- Tool category boxes -->
  <rect x="50"  y="460" width="118" height="120" rx="5" fill="#00002a" stroke="#0033cc" stroke-width="1"/>
  <text x="109" y="477" text-anchor="middle" font-size="9" fill="#88aaff">Network (25+)</text>
  <text x="109" y="492" text-anchor="middle" font-size="8" fill="#556688">nmap • masscan</text>
  <text x="109" y="504" text-anchor="middle" font-size="8" fill="#556688">rustscan • amass</text>
  <text x="109" y="516" text-anchor="middle" font-size="8" fill="#556688">subfinder • fierce</text>
  <text x="109" y="528" text-anchor="middle" font-size="8" fill="#556688">netexec • responder</text>
  <text x="109" y="540" text-anchor="middle" font-size="8" fill="#556688">enum4linux • nbtscan</text>
  <text x="109" y="552" text-anchor="middle" font-size="8" fill="#556688">tcpdump • rpcclient</text>
  <text x="109" y="564" text-anchor="middle" font-size="8" fill="#556688">arp-scan ...</text>

  <rect x="182" y="460" width="118" height="120" rx="5" fill="#00002a" stroke="#0033cc" stroke-width="1"/>
  <text x="241" y="477" text-anchor="middle" font-size="9" fill="#88aaff">Web App (40+)</text>
  <text x="241" y="492" text-anchor="middle" font-size="8" fill="#556688">gobuster • ffuf</text>
  <text x="241" y="504" text-anchor="middle" font-size="8" fill="#556688">nuclei • nikto</text>
  <text x="241" y="516" text-anchor="middle" font-size="8" fill="#556688">sqlmap • wpscan</text>
  <text x="241" y="528" text-anchor="middle" font-size="8" fill="#556688">httpx • katana</text>
  <text x="241" y="540" text-anchor="middle" font-size="8" fill="#556688">dalfox • wafw00f</text>
  <text x="241" y="552" text-anchor="middle" font-size="8" fill="#556688">feroxbuster • dirb</text>
  <text x="241" y="564" text-anchor="middle" font-size="8" fill="#556688">arjun • zaproxy ...</text>

  <rect x="314" y="460" width="118" height="120" rx="5" fill="#00002a" stroke="#0033cc" stroke-width="1"/>
  <text x="373" y="477" text-anchor="middle" font-size="9" fill="#88aaff">Binary (25+)</text>
  <text x="373" y="492" text-anchor="middle" font-size="8" fill="#556688">gdb • radare2</text>
  <text x="373" y="504" text-anchor="middle" font-size="8" fill="#556688">ghidra • binwalk</text>
  <text x="373" y="516" text-anchor="middle" font-size="8" fill="#556688">pwntools • angr</text>
  <text x="373" y="528" text-anchor="middle" font-size="8" fill="#556688">ropgadget • ropper</text>
  <text x="373" y="540" text-anchor="middle" font-size="8" fill="#556688">checksec • strings</text>
  <text x="373" y="552" text-anchor="middle" font-size="8" fill="#556688">objdump • msfvenom</text>
  <text x="373" y="564" text-anchor="middle" font-size="8" fill="#556688">one-gadget ...</text>

  <rect x="446" y="460" width="118" height="120" rx="5" fill="#00002a" stroke="#0033cc" stroke-width="1"/>
  <text x="505" y="477" text-anchor="middle" font-size="9" fill="#88aaff">Cloud (20+)</text>
  <text x="505" y="492" text-anchor="middle" font-size="8" fill="#556688">prowler • trivy</text>
  <text x="505" y="504" text-anchor="middle" font-size="8" fill="#556688">scout-suite • pacu</text>
  <text x="505" y="516" text-anchor="middle" font-size="8" fill="#556688">kube-hunter</text>
  <text x="505" y="528" text-anchor="middle" font-size="8" fill="#556688">kube-bench</text>
  <text x="505" y="540" text-anchor="middle" font-size="8" fill="#556688">checkov • falco</text>
  <text x="505" y="552" text-anchor="middle" font-size="8" fill="#556688">terrascan • clair</text>
  <text x="505" y="564" text-anchor="middle" font-size="8" fill="#556688">docker-bench ...</text>

  <rect x="578" y="460" width="118" height="120" rx="5" fill="#00002a" stroke="#0033cc" stroke-width="1"/>
  <text x="637" y="477" text-anchor="middle" font-size="9" fill="#88aaff">OSINT (20+)</text>
  <text x="637" y="492" text-anchor="middle" font-size="8" fill="#556688">sherlock • maltego</text>
  <text x="637" y="504" text-anchor="middle" font-size="8" fill="#556688">spiderfoot • recon-ng</text>
  <text x="637" y="516" text-anchor="middle" font-size="8" fill="#556688">theharvester</text>
  <text x="637" y="528" text-anchor="middle" font-size="8" fill="#556688">shodan • censys</text>
  <text x="637" y="540" text-anchor="middle" font-size="8" fill="#556688">social-analyzer</text>
  <text x="637" y="552" text-anchor="middle" font-size="8" fill="#556688">trufflehog • amass</text>
  <text x="637" y="564" text-anchor="middle" font-size="8" fill="#556688">subfinder ...</text>

  <rect x="710" y="460" width="140" height="120" rx="5" fill="#00002a" stroke="#0033cc" stroke-width="1"/>
  <text x="780" y="477" text-anchor="middle" font-size="9" fill="#88aaff">CTF / Forensics (20+)</text>
  <text x="780" y="492" text-anchor="middle" font-size="8" fill="#556688">volatility3 • autopsy</text>
  <text x="780" y="504" text-anchor="middle" font-size="8" fill="#556688">steghide • binwalk</text>
  <text x="780" y="516" text-anchor="middle" font-size="8" fill="#556688">john • hashcat</text>
  <text x="780" y="528" text-anchor="middle" font-size="8" fill="#556688">foremost • zsteg</text>
  <text x="780" y="540" text-anchor="middle" font-size="8" fill="#556688">exiftool • stegsolve</text>
  <text x="780" y="552" text-anchor="middle" font-size="8" fill="#556688">sleuthkit • scalpel</text>
  <text x="780" y="564" text-anchor="middle" font-size="8" fill="#556688">cyberchef ...</text>

  <!-- Footer -->
  <text x="450" y="610" text-anchor="middle" font-size="10" fill="#444444">github.com/aymanlagraini/hexstrike-ai  •  MIT License  •  WSL2 / Kali Linux</text>
</svg>
